<svg xmlns="http://www.w3.org/2000/svg" viewBox="0 0 100 100"><path d="M88.933 49.951a40 40 0 1 0-76.433 16.5h72.869a39.829 39.829 0 0 0 3.564-16.5z" fill="rgba(110,40,217,0.12)"></path><path d="M9.433 66.451h78m-82.5 0h2.5m82 0h2.5" stroke-linecap="round" stroke="#6e28d9" stroke-linejoin="round" fill="none"></path><ellipse cx="78.418" cy="82.298" rx="16.448" ry="1.974" fill="rgba(110,40,217,0.12)"></ellipse><ellipse cx="25.783" cy="82.298" rx="16.448" ry="1.974" fill="rgba(110,40,217,0.12)"></ellipse><path d="M64.044 71.771H11.866A1.874 1.874 0 0 1 9.993 69.9V38.874h55.925V69.9a1.873 1.873 0 0 1-1.874 1.871z" fill="#ffffff" stroke-linecap="round" stroke="#6e28d9" stroke-linejoin="round"></path><path d="M65.918 38.874H9.993v-5.806a2.089 2.089 0 0 1 2.089-2.089h51.747a2.089 2.089 0 0 1 2.089 2.089z" fill="#ffffff"></path><path d="M65.918 38.874H9.993v-5.806a2.089 2.089 0 0 1 2.089-2.089h51.747a2.089 2.089 0 0 1 2.089 2.089z" stroke-linecap="round" stroke="#6e28d9" stroke-linejoin="round" fill="none"></path><circle cx="13.941" cy="34.927" r="1.316" fill="rgba(110,40,217,0.34)" stroke-linecap="round" stroke="#6e28d9" stroke-linejoin="round"></circle><circle cx="19.204" cy="34.927" r="1.316" fill="rgba(110,40,217,0.34)" stroke-linecap="round" stroke="#6e28d9" stroke-linejoin="round"></circle><circle cx="24.468" cy="34.927" r="1.316" fill="rgba(110,40,217,0.34)" stroke-linecap="round" stroke="#6e28d9" stroke-linejoin="round"></circle><rect x="19.862" y="64.985" width="2.632" height="17.613" rx=".5" transform="rotate(-45 21.178 73.792)" fill="#ffffff" stroke="#6e28d9" stroke-linejoin="round"></rect><rect x="32.668" y="64.985" width="2.632" height="17.613" rx=".5" transform="rotate(-45 33.985 73.792)" fill="#ffffff" stroke="#6e28d9" stroke-linejoin="round"></rect><rect x="12.372" y="72.476" width="17.613" height="2.632" rx=".5" transform="rotate(-45 21.178 73.792)" fill="#ffffff" stroke="#6e28d9" stroke-linejoin="round"></rect><rect x="26.441" y="62.56" width="2.632" height="18.422" rx=".354" fill="#ffffff" stroke="#6e28d9" stroke-linejoin="round"></rect><rect x="13.283" y="62.56" width="2.632" height="18.422" rx=".354" fill="#ffffff" stroke="#6e28d9" stroke-linejoin="round"></rect><rect x="15.914" y="64.534" width="10.527" height="2.632" rx=".5" fill="#ffffff" stroke="#6e28d9" stroke-linejoin="round"></rect><rect x="14.599" y="43.48" width="13.817" height="15.79" rx="1" fill="rgba(110,40,217,0.34)" stroke="#6e28d9" stroke-linejoin="round"></rect><path d="M58.338 63.218H38.626a1 1 0 0 0-1 1v7.553h21.712v-7.553a1 1 0 0 0-1-1z" fill="rgba(110,40,217,0.34)" stroke="#6e28d9" stroke-linejoin="round"></path><path fill="rgba(110,40,217,0.34)" stroke-linecap="round" stroke="#6e28d9" stroke-linejoin="round" d="M37.626 56.639h21.712v3.29H37.626z"></path><path fill="#ffffff" d="m70.173 24.296-1.566 5.484h10.968v-5.484h-9.402z"></path><rect x="40.749" y="21.162" width="52.144" height="3.134" rx="1" fill="rgba(110,40,217,0.34)" stroke-linecap="round" stroke="#6e28d9" stroke-linejoin="round"></rect><path fill="rgba(110,40,217,0.34)" stroke-linecap="round" stroke="#6e28d9" stroke-linejoin="round" d="M71.74 32.914h6.267v47.805H71.74zm6.268-11.752H71.74l2.505-8.141a.658.658 0 0 1 1.258 0z"></path><path stroke-linecap="round" stroke="#6e28d9" stroke-linejoin="round" fill="none" d="m42.065 21.162 32.897-8.21m14.014 8.21-14.014-8.21"></path><path d="M69.264 32.914h9.653a.659.659 0 0 0 .658-.658V29.78H68.607v2.476a.658.658 0 0 0 .657.658z" fill="rgba(110,40,217,0.34)" stroke-linecap="round" stroke="#6e28d9" stroke-linejoin="round"></path><path stroke-linecap="round" stroke="#6e28d9" stroke-linejoin="round" fill="none" d="m70.173 24.296-1.566 5.484h10.968v-5.484h-9.402z"></path><path fill="rgba(110,40,217,0.34)" stroke-linecap="round" stroke="#6e28d9" stroke-linejoin="round" d="M45.45 24.296h6.267v3.134H45.45z"></path><path d="M50.211 43.731a1.567 1.567 0 1 1-1.567-1.567 1.567 1.567 0 0 1 1.567 1.567z" fill="#ffffff" stroke-linecap="round" stroke="#6e28d9" stroke-linejoin="round"></path><path stroke-linecap="round" stroke="#6e28d9" stroke-linejoin="round" fill="none" d="m71.74 47.799 6.268 6.268m0-6.268-6.268 6.268m0 .783 6.268 6.267m0-6.267-6.268 6.267m0 .176 6.268 6.267m0-6.267L71.74 67.56m0 .312 6.268 6.268m0-6.268L71.74 74.14m0-33.392 6.268 6.268m0-6.268-6.268 6.268m0-13.319 6.268 6.268m0-6.268-6.268 6.268"></path><path d="M67.566 78.087h22.028a.5.5 0 0 1 .5.5v2.132H67.066v-2.132a.5.5 0 0 1 .5-.5zm3.29-2.632h7.553a.5.5 0 0 1 .5.5v2.132h-8.553v-2.132a.5.5 0 0 1 .5-.5z" fill="#ffffff" stroke-linecap="round" stroke="#6e28d9" stroke-linejoin="round"></path><path fill="rgba(110,40,217,0.34)" stroke-linecap="round" stroke="#6e28d9" stroke-linejoin="round" d="M82.199 75.455h6.579v2.632h-6.579z"></path><path fill="rgba(110,40,217,0.34)" stroke-linecap="round" stroke="#6e28d9" stroke-linejoin="round" d="M82.199 72.824h6.579v2.632h-6.579zm0-2.632h6.579v2.632h-6.579z"></path><path stroke-linecap="round" stroke="#6e28d9" stroke-linejoin="round" fill="none" d="m48.644 45.298 4.606 4.103h-9.211l4.605-4.103z"></path><path fill="rgba(110,40,217,0.34)" stroke-linecap="round" stroke="#6e28d9" stroke-linejoin="round" d="M39.924 49.401h17.44v3.29h-17.44z"></path><path stroke-linecap="round" stroke="#6e28d9" stroke-linejoin="round" fill="none" d="M48.644 42.164V27.43"></path></svg>