<svg viewBox="0 0 100 100" xmlns="http://www.w3.org/2000/svg"><path d="M10.000 51.660 A40.000 40.000 0 1 0 90.000 51.660 A40.000 40.000 0 1 0 10.000 51.660 Z" fill="rgba(110,40,217,0.12)"></path><path d="M22.189 48.544 A25.572 25.572 0 1 0 73.333 48.544 A25.572 25.572 0 1 0 22.189 48.544 Z" fill="rgba(110,40,217,0.34)"></path><path d="M70.942,37.734A25.641,25.641,0,0,0,55.123,24.048h-3.8A3.512,3.512,0,0,0,47.8,26.865a3.388,3.388,0,0,0,3.34,3.954,2.713,2.713,0,0,1,2.621,3.4,2.78,2.78,0,0,1-2.731,2.011H41.366a7.029,7.029,0,0,0-7.144,6.406,6.772,6.772,0,0,0,6.762,7.135h3.979a1.776,1.776,0,0,1,1.775,1.776v1.44a1.508,1.508,0,0,0,1.5,1.523,1.524,1.524,0,0,1,1.543,1.524V57.9a1.235,1.235,0,0,1-.222.813,4.066,4.066,0,0,0,.044,5.2,4.284,4.284,0,0,0,3.307,1.433h1.61c4.4,0,5.755-4.062,5.755-6.093V52.484a3.679,3.679,0,0,1,1.979-3.268,5.429,5.429,0,0,0,2.591-4.626.234.234,0,0,0-.233-.23H61.972a1.355,1.355,0,0,1-1.354-1.355V41.313a1.354,1.354,0,0,1,1.354-1.354h5.79A3.384,3.384,0,0,0,70.942,37.734Z" fill="#ffffff"></path><path d="M22.189 48.544 A25.572 25.572 0 1 0 73.333 48.544 A25.572 25.572 0 1 0 22.189 48.544 Z" fill="none" stroke="#6e28d9" stroke-linecap="round" stroke-linejoin="round"></path><path d="M70.942,37.734A25.641,25.641,0,0,0,55.123,24.048h-3.8A3.512,3.512,0,0,0,47.8,26.865a3.388,3.388,0,0,0,3.34,3.954,2.713,2.713,0,0,1,2.621,3.4,2.78,2.78,0,0,1-2.731,2.011H41.366a7.029,7.029,0,0,0-7.144,6.406,6.772,6.772,0,0,0,6.762,7.135h3.979a1.776,1.776,0,0,1,1.775,1.776v1.44a1.508,1.508,0,0,0,1.5,1.523,1.524,1.524,0,0,1,1.543,1.524V57.9a1.235,1.235,0,0,1-.222.813,4.066,4.066,0,0,0,.044,5.2,4.284,4.284,0,0,0,3.307,1.433h1.61c4.4,0,5.755-4.062,5.755-6.093V52.484a3.679,3.679,0,0,1,1.979-3.268,5.429,5.429,0,0,0,2.591-4.626.234.234,0,0,0-.233-.23H61.972a1.355,1.355,0,0,1-1.354-1.355V41.313a1.354,1.354,0,0,1,1.354-1.354h5.79A3.384,3.384,0,0,0,70.942,37.734Z" fill="none" stroke="#6e28d9" stroke-linecap="round" stroke-linejoin="round"></path><path d="M37.041 86.343 A12.58 1.715 0 1 0 62.201 86.343 A12.58 1.715 0 1 0 37.041 86.343 Z" fill="rgba(110,40,217,0.34)"></path><path d="M63.293,21.473a4.362,4.362,0,0,1,3.337,5.188c-.357,1.646-3.162,4.516-4.818,6.093a1.143,1.143,0,0,1-1.85-.4c-.852-2.122-2.215-5.9-1.858-7.543A4.363,4.363,0,0,1,63.293,21.473Z" fill="rgba(110,40,217,0.34)" stroke="#6e28d9" stroke-linecap="round" stroke-linejoin="round"></path><path d="M39.644,34.8a3.2,3.2,0,0,1,3.644,2.682c.17,1.115-.791,3.462-1.509,5.014a1.142,1.142,0,0,1-1.886.286c-1.147-1.269-2.762-3.223-2.931-4.338A3.2,3.2,0,0,1,39.644,34.8Z" fill="rgba(110,40,217,0.34)" stroke="#6e28d9" stroke-linecap="round" stroke-linejoin="round"></path><path d="M69.761 69.06H74.06299999999999V74.078H69.761z" fill="#ffffff" stroke="#6e28d9" stroke-linecap="round" stroke-linejoin="round" transform="translate(-29.544 71.155) rotate(-44.629)"></path><path d="M82.262,77.971A2.867,2.867,0,1,1,78.181,82l-6.043-6.121a.717.717,0,0,1,.007-1.014l3.061-3.022a.716.716,0,0,1,1.013.007Z" fill="#6e28d9"></path><path d="M82.262,77.971A2.867,2.867,0,1,1,78.181,82l-6.043-6.121a.717.717,0,0,1,.007-1.014l3.061-3.022a.716.716,0,0,1,1.013.007Z" fill="rgba(110,40,217,0.34)" stroke="#6e28d9" stroke-linecap="round" stroke-linejoin="round"></path><path d="M46.574 60.885 A14.165 14.165 0 1 0 74.904 60.885 A14.165 14.165 0 1 0 46.574 60.885 Z" fill="#ffffff"></path><path d="M46.574 60.885 A14.165 14.165 0 1 0 74.904 60.885 A14.165 14.165 0 1 0 46.574 60.885 Z" fill="none" stroke="#6e28d9" stroke-linecap="round" stroke-linejoin="round"></path><path d="M50.658 60.885 A10.081 10.081 0 1 0 70.820 60.885 A10.081 10.081 0 1 0 50.658 60.885 Z" fill="rgba(110,40,217,0.34)" transform="translate(-12.472 106.011) rotate(-76.718)"></path><path d="M50.658 60.885 A10.081 10.081 0 1 0 70.820 60.885 A10.081 10.081 0 1 0 50.658 60.885 Z" fill="none" transform="translate(-12.472 106.011) rotate(-76.718)"></path><path d="M60.739,50.8a10.081,10.081,0,0,0-5.807,18.322H55.98c5.084,0,6.648-4.693,6.648-7.04V54.264a3.978,3.978,0,0,1,1.23-2.967A10.048,10.048,0,0,0,60.739,50.8Z" fill="#ffffff"></path><path d="M54.932,69.126H55.98c5.084,0,6.648-4.693,6.648-7.04V54.264A3.981,3.981,0,0,1,63.852,51.3" fill="none" stroke="#6e28d9" stroke-linecap="round" stroke-linejoin="round"></path><path d="M50.658 60.885 A10.081 10.081 0 1 0 70.820 60.885 A10.081 10.081 0 1 0 50.658 60.885 Z" fill="none" stroke="#6e28d9" stroke-linecap="round" stroke-linejoin="round" transform="translate(-12.472 106.011) rotate(-76.718)"></path><path d="M40.49,15.02c.759,4.383-5.313,16.521-5.313,16.521s-9.8-9.393-10.556-13.775A8.052,8.052,0,0,1,40.49,15.02Z" fill="#ffffff" stroke="#6e28d9" stroke-linecap="round" stroke-linejoin="round"></path><path d="M28.896 16.393 A3.660 3.660 0 1 0 36.216 16.393 A3.660 3.660 0 1 0 28.896 16.393 Z" fill="rgba(110,40,217,0.34)" stroke="#6e28d9" stroke-linecap="round" stroke-linejoin="round"></path></svg>