<svg viewBox="0 0 100 100" xmlns="http://www.w3.org/2000/svg"><path d="M89.634,50A40,40,0,1,0,13.2,66.5H86.07A39.829,39.829,0,0,0,89.634,50Z" fill="rgba(110,40,217,0.12)"></path><path d="M10.634 66.5L88.634 66.5" fill="none" stroke="#6e28d9" stroke-linecap="round" stroke-linejoin="round"></path><path d="M6.134 66.5L8.634 66.5" fill="none" stroke="#6e28d9" stroke-linecap="round" stroke-linejoin="round"></path><path d="M90.634 66.5L93.134 66.5" fill="none" stroke="#6e28d9" stroke-linecap="round" stroke-linejoin="round"></path><path d="M66.5,29.421a7.235,7.235,0,0,1-7.234,7.234H28.719a4.724,4.724,0,0,0-4.4,2.99l-6.848,17.1H7.018L15.312,35.8A10.085,10.085,0,0,1,24.7,29.421Z" fill="rgba(110,40,217,0.34)"></path><path d="M66.5,29.421a7.235,7.235,0,0,1-7.234,7.234H28.719a4.724,4.724,0,0,0-4.4,2.99l-6.848,17.1H7.018L15.312,35.8A10.085,10.085,0,0,1,24.7,29.421Z" fill="none" stroke="#6e28d9" stroke-linecap="round" stroke-linejoin="round"></path><path d="M79.356 62.372 A4.019 4.019 0 1 0 87.394 62.372 A4.019 4.019 0 1 0 79.356 62.372 Z" fill="rgba(110,40,217,0.34)"></path><path d="M79.356 62.372 A4.019 4.019 0 1 0 87.394 62.372 A4.019 4.019 0 1 0 79.356 62.372 Z" fill="none" stroke="#6e28d9" stroke-linecap="round" stroke-linejoin="round"></path><path d="M82.571 62.372 A0.804 0.804 0 1 0 84.179 62.372 A0.804 0.804 0 1 0 82.571 62.372 Z" fill="none" stroke="#6e28d9" stroke-linecap="round" stroke-linejoin="round"></path><path d="M68.907 62.372 A4.019 4.019 0 1 0 76.945 62.372 A4.019 4.019 0 1 0 68.907 62.372 Z" fill="rgba(110,40,217,0.34)"></path><path d="M68.907 62.372 A4.019 4.019 0 1 0 76.945 62.372 A4.019 4.019 0 1 0 68.907 62.372 Z" fill="none" stroke="#6e28d9" stroke-linecap="round" stroke-linejoin="round"></path><path d="M72.122 62.372 A0.804 0.804 0 1 0 73.730 62.372 A0.804 0.804 0 1 0 72.122 62.372 Z" fill="none" stroke="#6e28d9" stroke-linecap="round" stroke-linejoin="round"></path><path d="M23.093 62.372 A4.019 4.019 0 1 0 31.131 62.372 A4.019 4.019 0 1 0 23.093 62.372 Z" fill="rgba(110,40,217,0.34)"></path><path d="M23.093 62.372 A4.019 4.019 0 1 0 31.131 62.372 A4.019 4.019 0 1 0 23.093 62.372 Z" fill="none" stroke="#6e28d9" stroke-linecap="round" stroke-linejoin="round"></path><path d="M26.308 62.372 A0.804 0.804 0 1 0 27.916 62.372 A0.804 0.804 0 1 0 26.308 62.372 Z" fill="none" stroke="#6e28d9" stroke-linecap="round" stroke-linejoin="round"></path><path d="M12.645 62.372 A4.019 4.019 0 1 0 20.683 62.372 A4.019 4.019 0 1 0 12.645 62.372 Z" fill="rgba(110,40,217,0.34)"></path><path d="M12.645 62.372 A4.019 4.019 0 1 0 20.683 62.372 A4.019 4.019 0 1 0 12.645 62.372 Z" fill="none" stroke="#6e28d9" stroke-linecap="round" stroke-linejoin="round"></path><path d="M15.860 62.372 A0.804 0.804 0 1 0 17.468 62.372 A0.804 0.804 0 1 0 15.860 62.372 Z" fill="none" stroke="#6e28d9" stroke-linecap="round" stroke-linejoin="round"></path><path d="M49.618 57.550 A8.841 8.841 0 1 0 67.300 57.550 A8.841 8.841 0 1 0 49.618 57.550 Z" fill="rgba(110,40,217,0.34)"></path><path d="M49.618 57.550 A8.841 8.841 0 1 0 67.300 57.550 A8.841 8.841 0 1 0 49.618 57.550 Z" fill="none" stroke="#6e28d9" stroke-linecap="round" stroke-linejoin="round"></path><path d="M56.851 57.550 A1.608 1.608 0 1 0 60.067 57.550 A1.608 1.608 0 1 0 56.851 57.550 Z" fill="#ffffff" stroke="#6e28d9" stroke-linecap="round" stroke-linejoin="round"></path><path d="M58.459 51.12L58.459 53.531" fill="none" stroke="#6e28d9" stroke-linecap="round" stroke-linejoin="round"></path><path d="M53.912 53.003L55.617 54.708" fill="none" stroke="#6e28d9" stroke-linecap="round" stroke-linejoin="round"></path><path d="M52.029 57.55L54.44 57.55" fill="none" stroke="#6e28d9" stroke-linecap="round" stroke-linejoin="round"></path><path d="M53.912 62.096L55.617 60.391" fill="none" stroke="#6e28d9" stroke-linecap="round" stroke-linejoin="round"></path><path d="M58.459 63.98L58.459 61.568" fill="none" stroke="#6e28d9" stroke-linecap="round" stroke-linejoin="round"></path><path d="M64.889 57.55L62.478 57.55" fill="none" stroke="#6e28d9" stroke-linecap="round" stroke-linejoin="round"></path><path d="M63.005 62.096L61.301 60.391" fill="none" stroke="#6e28d9" stroke-linecap="round" stroke-linejoin="round"></path><path d="M63.005 53.003L61.301 54.708" fill="none" stroke="#6e28d9" stroke-linecap="round" stroke-linejoin="round"></path><path d="M31.935 57.550 A8.841 8.841 0 1 0 49.617 57.550 A8.841 8.841 0 1 0 31.935 57.550 Z" fill="rgba(110,40,217,0.34)"></path><path d="M31.935 57.550 A8.841 8.841 0 1 0 49.617 57.550 A8.841 8.841 0 1 0 31.935 57.550 Z" fill="none" stroke="#6e28d9" stroke-linecap="round" stroke-linejoin="round"></path><path d="M39.168 57.550 A1.608 1.608 0 1 0 42.384 57.550 A1.608 1.608 0 1 0 39.168 57.550 Z" fill="#ffffff" stroke="#6e28d9" stroke-linecap="round" stroke-linejoin="round"></path><path d="M40.776 51.12L40.776 53.531" fill="none" stroke="#6e28d9" stroke-linecap="round" stroke-linejoin="round"></path><path d="M36.23 62.096L37.934 60.391" fill="none" stroke="#6e28d9" stroke-linecap="round" stroke-linejoin="round"></path><path d="M40.776 63.98L40.776 61.568" fill="none" stroke="#6e28d9" stroke-linecap="round" stroke-linejoin="round"></path><path d="M47.206 57.55L44.795 57.55" fill="none" stroke="#6e28d9" stroke-linecap="round" stroke-linejoin="round"></path><path d="M45.323 62.096L43.618 60.391" fill="none" stroke="#6e28d9" stroke-linecap="round" stroke-linejoin="round"></path><path d="M45.323 53.003L43.618 54.708" fill="none" stroke="#6e28d9" stroke-linecap="round" stroke-linejoin="round"></path><path d="M3.882,64.186a1.608,1.608,0,0,0,1.493,2.2H7.892a1.562,1.562,0,0,0,1.449-.981l1.119-2.395A2.3,2.3,0,0,1,12.6,61.568H32.777a3.366,3.366,0,0,0,3.171-2.234l.921-2.585H7.018Z" fill="#ffffff"></path><path d="M3.882,64.186a1.608,1.608,0,0,0,1.493,2.2H7.892a1.562,1.562,0,0,0,1.449-.981l1.119-2.395A2.3,2.3,0,0,1,12.6,61.568H32.777a3.366,3.366,0,0,0,3.171-2.234l.921-2.585H7.018Z" fill="none" stroke="#6e28d9" stroke-linecap="round" stroke-linejoin="round"></path><path d="M17.466,56.749l6.753-16.882h-4.34a3.087,3.087,0,0,0-2.866,1.94L11.036,56.749Z" fill="rgba(110,40,217,0.34)"></path><path d="M96.234,31.832v1.3a2.817,2.817,0,0,1-.723,1.9,2.744,2.744,0,0,1-1.029.708,3.484,3.484,0,0,0-1.318.916,3.545,3.545,0,0,0-.948,2.411v19.29a3.181,3.181,0,0,1-.547,1.8,2.277,2.277,0,0,1-.4.466A3.14,3.14,0,0,1,89,61.571H64.84a1.557,1.557,0,0,1-1.431-.948,1.608,1.608,0,0,1-.128-.611V58.356a8.04,8.04,0,0,0-8.038-8.037H46a9.7,9.7,0,0,0-9.131,6.43h-19.4l6.848-17.1a4.752,4.752,0,0,1,1.2-1.736,4.4,4.4,0,0,1,.531-.434,4.705,4.705,0,0,1,2.668-.82H59.262a6.882,6.882,0,0,0,1.414-.145,7.674,7.674,0,0,0,1.351-.4,7.28,7.28,0,0,0,4.051-4.276,6.027,6.027,0,0,0,.3-1.173.122.122,0,0,0,.016-.081c.032-.176.048-.353.064-.53.016-.209.033-.418.033-.627H93.823a2.4,2.4,0,0,1,2.363,1.929A2.47,2.47,0,0,1,96.234,31.832Z" fill="#ffffff"></path><path d="M96.234,31.832v1.3a2.817,2.817,0,0,1-.723,1.9,2.656,2.656,0,0,1-1.029.724,3.448,3.448,0,0,0-1.318.9,3.545,3.545,0,0,0-.948,2.411v19.29a3.181,3.181,0,0,1-.547,1.8,3.635,3.635,0,0,1-.4.466A3.14,3.14,0,0,1,89,61.571H64.84a1.557,1.557,0,0,1-1.431-.948,1.608,1.608,0,0,1-.128-.611V58.356a8.04,8.04,0,0,0-8.038-8.037H46a9.7,9.7,0,0,0-9.131,6.43h-19.4l6.848-17.1a4.752,4.752,0,0,1,1.2-1.736,4.4,4.4,0,0,1,.531-.434,4.705,4.705,0,0,1,2.668-.82H59.262a6.882,6.882,0,0,0,1.414-.145,6.524,6.524,0,0,0,1.351-.4,7.28,7.28,0,0,0,4.051-4.276,6.027,6.027,0,0,0,.3-1.173.122.122,0,0,0,.016-.081c.032-.176.048-.353.064-.53.016-.209.033-.418.033-.627H93.823a2.4,2.4,0,0,1,2.363,1.929A2.47,2.47,0,0,1,96.234,31.832Z" fill="none" stroke="#6e28d9" stroke-linecap="round" stroke-linejoin="round"></path><path d="M77.749,33.437h4.822a1.608,1.608,0,0,1,1.608,1.608v4.822a1.607,1.607,0,0,1-1.607,1.607H77.75a1.608,1.608,0,0,1-1.608-1.608V35.044A1.607,1.607,0,0,1,77.749,33.437Z" fill="rgba(110,40,217,0.34)"></path><path d="M77.749,33.437h4.822a1.608,1.608,0,0,1,1.608,1.608v4.822a1.607,1.607,0,0,1-1.607,1.607H77.75a1.608,1.608,0,0,1-1.608-1.608V35.044A1.607,1.607,0,0,1,77.749,33.437Z" fill="none" stroke="#6e28d9" stroke-linecap="round" stroke-linejoin="round"></path><path d="M89.001 56.746L66.496 56.746" fill="none" stroke="#6e28d9" stroke-linecap="round" stroke-linejoin="round"></path><path d="M89.001 53.531L66.496 53.531" fill="none" stroke="#6e28d9" stroke-linecap="round" stroke-linejoin="round"></path><path d="M34.346 53.531L22.29 53.531" fill="none" stroke="#6e28d9" stroke-linecap="round" stroke-linejoin="round"></path><path d="M36.757 50.316L24.701 50.316" fill="none" stroke="#6e28d9" stroke-linecap="round" stroke-linejoin="round"></path><path d="M89.001 50.316L66.496 50.316" fill="none" stroke="#6e28d9" stroke-linecap="round" stroke-linejoin="round"></path><path d="M89.001 41.475L87.394 41.475" fill="none" stroke="#6e28d9" stroke-linecap="round" stroke-linejoin="round"></path><path d="M72.926 41.475L27.112 41.475" fill="none" stroke="#6e28d9" stroke-linecap="round" stroke-linejoin="round"></path><path d="M89.805 33.437L87.394 33.437" fill="none" stroke="#6e28d9" stroke-linecap="round" stroke-linejoin="round"></path><path d="M72.926 33.437L68.908 33.437" fill="none" stroke="#6e28d9" stroke-linecap="round" stroke-linejoin="round"></path><path d="M17.466,56.749l6.753-16.882h-4.34a3.087,3.087,0,0,0-2.866,1.94L11.036,56.749Z" fill="none" stroke="#6e28d9" stroke-linecap="round" stroke-linejoin="round"></path></svg>