<svg xmlns="http://www.w3.org/2000/svg" fill="none" viewBox="0 0 100 100"><path fill="rgba(110,40,217,0.12)" d="M90.5 53.619C90.5008 47.6492 89.1653 41.7549 86.5914 36.3684C84.0176 30.9819 80.2707 26.2398 75.6256 22.4899C70.9804 18.74 65.5548 16.0774 59.7467 14.6974C53.9386 13.3174 47.8952 13.2549 42.0597 14.5146C36.2243 15.7742 30.7448 18.3241 26.0232 21.9772C21.3015 25.6303 17.4574 30.2939 14.7728 35.626C12.0882 40.9582 10.6311 46.8236 10.5084 52.7922C10.3858 58.7608 11.6007 64.6811 14.064 70.119H86.936C89.2894 64.9369 90.5047 59.3105 90.5 53.619V53.619Z"></path><path stroke="#6e28d9" stroke-linecap="round" stroke-linejoin="round" d="M11 70.119H89"></path><path stroke="#6e28d9" stroke-linecap="round" stroke-linejoin="round" d="M6.5 70.119H9"></path><path stroke="#6e28d9" stroke-linecap="round" stroke-linejoin="round" d="M91 70.119H93.5"></path><path fill="rgba(110,40,217,0.34)" d="M60.663 70.1181V64.0081H66.219C66.5131 64.0081 66.7953 63.8914 67.0035 63.6837C67.2118 63.476 67.3292 63.1942 67.33 62.9001V61.6411C67.3545 59.3636 66.9271 57.1038 66.0726 54.9926C65.218 52.8813 63.9532 50.9605 62.3513 49.3414C60.7495 47.7222 58.8425 46.4367 56.7405 45.5595C54.6386 44.6822 52.3836 44.2305 50.106 44.2305C47.8283 44.2305 45.5733 44.6822 43.4714 45.5595C41.3695 46.4367 39.4625 47.7222 37.8606 49.3414C36.2588 50.9605 34.994 52.8813 34.1394 54.9926C33.2848 57.1038 32.8574 59.3636 32.882 61.6411V62.9001C32.8822 63.1948 32.9995 63.4774 33.208 63.6857C33.4165 63.8941 33.6992 64.0111 33.994 64.0111H39.55V70.1211L60.663 70.1181Z"></path><path stroke="#6e28d9" stroke-linecap="round" stroke-linejoin="round" d="M60.663 70.1181V64.0081H66.219C66.5131 64.0081 66.7953 63.8914 67.0035 63.6837C67.2118 63.476 67.3292 63.1942 67.33 62.9001V61.6411C67.3545 59.3636 66.9271 57.1038 66.0726 54.9926C65.218 52.8813 63.9532 50.9605 62.3513 49.3414C60.7495 47.7222 58.8425 46.4367 56.7405 45.5595C54.6386 44.6822 52.3836 44.2305 50.106 44.2305C47.8283 44.2305 45.5733 44.6822 43.4714 45.5595C41.3695 46.4367 39.4625 47.7222 37.8606 49.3414C36.2588 50.9605 34.994 52.8813 34.1394 54.9926C33.2848 57.1038 32.8574 59.3636 32.882 61.6411V62.9001C32.8822 63.1948 32.9995 63.4774 33.208 63.6857C33.4165 63.8941 33.6992 64.0111 33.994 64.0111H39.55V70.1211L60.663 70.1181Z"></path><path fill="#ffffff" stroke="#6e28d9" stroke-linecap="round" stroke-linejoin="round" d="M39.551 69.5201C39.551 72.4201 41.772 74.4981 45.54 74.4981L50.662 74.5651C51.3987 74.5651 52.1053 74.8577 52.6263 75.3787C53.1473 75.8997 53.44 76.6063 53.44 77.3431V77.3431C53.44 77.7079 53.3681 78.0691 53.2285 78.4062C53.0889 78.7432 52.8843 79.0494 52.6263 79.3074C52.3683 79.5654 52.0621 79.77 51.7251 79.9096C51.388 80.0492 51.0268 80.1211 50.662 80.1211H45.54C37.803 80.1211 33.994 74.9211 33.994 69.5211V64.0081H39.55L39.551 69.5201Z"></path><path fill="#ffffff" stroke="#6e28d9" stroke-linecap="round" stroke-linejoin="round" d="M66.219 64.0081H60.663V70.1201H66.219V64.0081Z"></path><path stroke="#6e28d9" stroke-linecap="round" stroke-linejoin="round" d="M39.55 64.008C38.687 62.281 38.47 61.736 38.937 59.864L39.55 57.416"></path><path stroke="#6e28d9" stroke-linecap="round" stroke-linejoin="round" d="M60.663 64.008C61.526 62.281 61.743 61.736 61.275 59.864L60.663 57.416"></path><path fill="#ffffff" d="M54 44.7C54 43.124 54 41.23 54 41.23H46.22C46.22 41.23 46.22 43.124 46.22 44.7C45.2371 44.9271 44.2763 45.241 43.349 45.638C44.0296 46.8298 45.0132 47.8204 46.2002 48.5094C47.3871 49.1984 48.7351 49.5613 50.1075 49.5613C51.4799 49.5613 52.8279 49.1984 54.0148 48.5094C55.2018 47.8204 56.1854 46.8298 56.866 45.638C55.9403 45.2411 54.9812 44.9272 54 44.7Z"></path><path stroke="#6e28d9" stroke-linecap="round" stroke-linejoin="round" d="M54 44.7C54 43.124 54 41.23 54 41.23H46.22C46.22 41.23 46.22 43.124 46.22 44.7C45.2371 44.9271 44.2763 45.241 43.349 45.638C44.0296 46.8298 45.0132 47.8204 46.2002 48.5094C47.3871 49.1984 48.7351 49.5613 50.1075 49.5613C51.4799 49.5613 52.8279 49.1984 54.0148 48.5094C55.2018 47.8204 56.1854 46.8298 56.866 45.638C55.9403 45.2411 54.9812 44.9272 54 44.7Z"></path><path fill="#ffffff" stroke="#6e28d9" stroke-linecap="round" stroke-linejoin="round" d="M45.111 36.2C45.111 38.041 43.619 40.089 41.777 40.089C39.935 40.089 38.444 38.041 38.444 36.2C38.444 34.359 39.936 33.422 41.777 33.422C43.618 33.422 45.111 34.359 45.111 36.2Z"></path><path fill="#ffffff" stroke="#6e28d9" stroke-linecap="round" stroke-linejoin="round" d="M45.111 41.2C45.111 43.042 43.619 45.09 41.777 45.09C39.935 45.09 38.444 43.042 38.444 41.2C38.444 39.358 39.936 38.422 41.777 38.422C43.618 38.422 45.111 39.359 45.111 41.2Z"></path><path fill="#ffffff" stroke="#6e28d9" stroke-linecap="round" stroke-linejoin="round" d="M61.779 29.532H61.224V26.754C61.1962 23.8251 60.0132 21.0255 57.9322 18.9642C55.8512 16.9029 53.0405 15.7465 50.1115 15.7465C47.1824 15.7465 44.3717 16.9029 42.2907 18.9642C40.2098 21.0255 39.0267 23.8251 38.999 26.754V29.532H38.444C36.909 29.532 35.666 31.149 35.666 33.144C35.666 35.139 36.909 36.755 38.444 36.755C38.9204 36.7461 39.3821 36.5881 39.764 36.303C40.5645 38.3993 41.9827 40.2031 43.8308 41.4757C45.679 42.7482 47.87 43.4296 50.114 43.4296C52.3579 43.4296 54.5489 42.7482 56.3971 41.4757C58.2452 40.2031 59.6634 38.3993 60.464 36.303C60.8458 36.5881 61.3075 36.7461 61.784 36.755C63.319 36.755 64.562 35.138 64.562 33.144C64.562 31.15 63.314 29.532 61.779 29.532Z"></path><path stroke="#6e28d9" stroke-linecap="round" stroke-linejoin="round" d="M46.759 37.085C47.6603 37.9435 48.8573 38.4224 50.102 38.4224C51.3467 38.4224 52.5437 37.9435 53.445 37.085"></path><path stroke="#6e28d9" stroke-linecap="round" stroke-linejoin="round" d="M56.2229 30.644C56.0857 30.3137 55.8537 30.0315 55.5562 29.833C55.2588 29.6344 54.9091 29.5284 54.5514 29.5284C54.1938 29.5284 53.8441 29.6344 53.5466 29.833C53.2492 30.0315 53.0172 30.3137 52.8799 30.644"></path><path stroke="#6e28d9" stroke-linecap="round" stroke-linejoin="round" d="M47.3429 30.644C47.2057 30.3137 46.9737 30.0315 46.6762 29.833C46.3787 29.6344 46.0291 29.5284 45.6714 29.5284C45.3138 29.5284 44.9641 29.6344 44.6666 29.833C44.3692 30.0315 44.1372 30.3137 43.9999 30.644"></path><path fill="rgba(110,40,217,0.34)" d="M43.7219 35.644C44.4891 35.644 45.1109 35.0222 45.1109 34.255C45.1109 33.4879 44.4891 32.866 43.7219 32.866C42.9548 32.866 42.3329 33.4879 42.3329 34.255C42.3329 35.0222 42.9548 35.644 43.7219 35.644Z"></path><path fill="rgba(110,40,217,0.34)" d="M56.5009 35.644C57.2681 35.644 57.8899 35.0222 57.8899 34.255C57.8899 33.4879 57.2681 32.866 56.5009 32.866C55.7338 32.866 55.1119 33.4879 55.1119 34.255C55.1119 35.0222 55.7338 35.644 56.5009 35.644Z"></path><path fill="#6e28d9" d="M38.4439 35.088C39.0575 35.088 39.5549 34.5906 39.5549 33.977C39.5549 33.3634 39.0575 32.866 38.4439 32.866C37.8304 32.866 37.3329 33.3634 37.3329 33.977C37.3329 34.5906 37.8304 35.088 38.4439 35.088Z"></path><path fill="#6e28d9" d="M61.779 35.088C62.3926 35.088 62.89 34.5906 62.89 33.977C62.89 33.3634 62.3926 32.866 61.779 32.866C61.1654 32.866 60.668 33.3634 60.668 33.977C60.668 34.5906 61.1654 35.088 61.779 35.088Z"></path><path fill="#ffffff" stroke="#6e28d9" stroke-linecap="round" stroke-linejoin="round" d="M61.779 29.532C62.1005 29.5372 62.417 29.613 62.706 29.754C62.8237 28.9446 62.8855 28.128 62.891 27.31C62.891 19.178 57.169 13.975 50.112 13.975C43.055 13.975 37.332 19.175 37.332 27.31C37.3375 28.128 37.3993 28.9446 37.517 29.754C37.806 29.613 38.1224 29.5372 38.444 29.532H39C39.4827 29.5671 39.9343 29.7835 40.2641 30.1378C40.5939 30.4921 40.7775 30.958 40.778 31.442C41.1979 29.9737 41.2786 28.4291 41.014 26.925C42.186 27.315 44.114 25.646 44.114 25.646V22.976C46.0556 23.6514 48.0691 24.099 50.114 24.31C52.1588 24.099 54.1723 23.6514 56.114 22.976V25.643C56.114 25.643 58.04 27.312 59.214 26.922C58.9493 28.4261 59.03 29.9707 59.45 31.439C59.4505 30.955 59.634 30.4891 59.9638 30.1348C60.2936 29.7805 60.7452 29.5641 61.228 29.529V29.529L61.779 29.532Z"></path><path fill="#ffffff" d="M59.557 14.531C59.557 19.747 55.328 25.643 50.112 25.643C44.896 25.643 40.666 19.743 40.666 14.531C40.666 9.31901 44.9 6.75201 50.112 6.75201C55.324 6.75201 59.557 9.31401 59.557 14.531Z"></path><path stroke="#6e28d9" stroke-linecap="round" stroke-linejoin="round" d="M59.557 14.531C59.557 19.747 55.328 25.643 50.112 25.643C44.896 25.643 40.666 19.743 40.666 14.531C40.666 9.31901 44.9 6.75201 50.112 6.75201C55.324 6.75201 59.557 9.31401 59.557 14.531Z"></path><path fill="#ffffff" stroke="#6e28d9" stroke-linecap="round" stroke-linejoin="round" d="M45.111 46.2C45.111 48.041 43.619 50.089 41.777 50.089C39.935 50.089 38.444 48.041 38.444 46.2C38.444 44.359 39.936 43.422 41.777 43.422C43.618 43.422 45.111 44.36 45.111 46.2Z"></path><path fill="#ffffff" stroke="#6e28d9" stroke-linecap="round" stroke-linejoin="round" d="M45.111 51.2C45.111 53.042 43.619 55.09 41.777 55.09C39.935 55.09 38.444 53.042 38.444 51.2C38.444 49.358 39.936 48.422 41.777 48.422C43.618 48.422 45.111 49.36 45.111 51.2Z"></path><path fill="#ffffff" stroke="#6e28d9" stroke-linecap="round" stroke-linejoin="round" d="M43.9999 60.647C43.7622 62.3118 43.375 63.9517 42.8429 65.547C42.775 65.7769 42.6346 65.9787 42.4425 66.1222C42.2505 66.2658 42.0172 66.3433 41.7774 66.3433C41.5377 66.3433 41.3044 66.2658 41.1123 66.1222C40.9203 65.9787 40.7798 65.7769 40.7119 65.547C40.1799 63.9517 39.7927 62.3118 39.5549 60.647C39.5549 59.112 40.2429 58.424 41.7769 58.424C43.3109 58.424 43.9999 59.112 43.9999 60.647Z"></path><path fill="rgba(110,40,217,0.34)" stroke="#6e28d9" stroke-linecap="round" stroke-linejoin="round" d="M41.777 58.424C41.4823 58.424 41.1997 58.3069 40.9914 58.0986C40.783 57.8902 40.666 57.6076 40.666 57.313V56.2C40.666 55.9053 40.783 55.6227 40.9914 55.4144C41.1997 55.206 41.4823 55.089 41.777 55.089V55.089C41.9229 55.0889 42.0675 55.1175 42.2024 55.1733C42.3373 55.229 42.4599 55.3109 42.5632 55.414C42.6665 55.5172 42.7484 55.6397 42.8043 55.7746C42.8602 55.9095 42.889 56.054 42.889 56.2V57.311C42.8892 57.4571 42.8606 57.6019 42.8049 57.737C42.7491 57.8721 42.6672 57.9948 42.5639 58.0982C42.4606 58.2016 42.3379 58.2836 42.2029 58.3395C42.0678 58.3954 41.9231 58.4241 41.777 58.424V58.424Z"></path><path fill="rgba(110,40,217,0.12)" d="M25.1 84.669C27.8615 84.669 30.1 83.9975 30.1 83.169C30.1 82.3406 27.8615 81.669 25.1 81.669C22.3386 81.669 20.1 82.3406 20.1 83.169C20.1 83.9975 22.3386 84.669 25.1 84.669Z"></path><path stroke="#6e28d9" stroke-linecap="round" stroke-linejoin="round" d="M22.767 55.574C22.4296 55.9116 22.2401 56.3693 22.2401 56.8465C22.2401 57.3238 22.4296 57.7815 22.767 58.119L23.821 59.174C24.1584 59.5116 24.3479 59.9693 24.3479 60.4465C24.3479 60.9238 24.1584 61.3815 23.821 61.719L22.767 62.774C22.4296 63.1116 22.2401 63.5693 22.2401 64.0465C22.2401 64.5238 22.4296 64.9815 22.767 65.319"></path><path stroke="#6e28d9" stroke-linecap="round" stroke-linejoin="round" d="M27.318 55.574C26.9806 55.9116 26.7911 56.3693 26.7911 56.8465C26.7911 57.3238 26.9806 57.7815 27.318 58.119L28.373 59.174C28.7104 59.5116 28.8999 59.9693 28.8999 60.4465C28.8999 60.9238 28.7104 61.3815 28.373 61.719L27.318 62.774C26.9806 63.1116 26.7911 63.5693 26.7911 64.0465C26.7911 64.5238 26.9806 64.9815 27.318 65.319"></path><path fill="#ffffff" stroke="#6e28d9" stroke-linejoin="round" d="M19.375 80.3191C18.7447 80.3191 18.1205 80.1949 17.5381 79.9537C16.9558 79.7125 16.4266 79.3589 15.9809 78.9132C15.5352 78.4674 15.1816 77.9383 14.9404 77.3559C14.6992 76.7736 14.575 76.1494 14.575 75.5191C14.575 74.8887 14.6992 74.2645 14.9404 73.6822C15.1816 73.0998 15.5352 72.5707 15.9809 72.1249C16.4266 71.6792 16.9558 71.3257 17.5381 71.0844C18.1205 70.8432 18.7447 70.7191 19.375 70.7191V73.1191C18.7385 73.1191 18.128 73.3719 17.678 73.822C17.2279 74.2721 16.975 74.8825 16.975 75.5191C16.975 76.1556 17.2279 76.766 17.678 77.2161C18.128 77.6662 18.7385 77.9191 19.375 77.9191V80.3191Z"></path><path fill="#ffffff" stroke="#6e28d9" stroke-linejoin="round" d="M30.025 67.7191H20.575C19.9123 67.7191 19.375 68.2563 19.375 68.9191V81.5191C19.375 82.1818 19.9123 82.7191 20.575 82.7191H30.025C30.6877 82.7191 31.225 82.1818 31.225 81.5191V68.9191C31.225 68.2563 30.6877 67.7191 30.025 67.7191Z"></path><path fill="rgba(110,40,217,0.34)" d="M27.0251 74.9191C27.0251 74.9191 29.0631 73.9911 29.0631 72.4981C29.0631 71.0051 27.2551 70.8901 27.0251 72.3831C26.7951 70.8901 24.9871 71.0051 24.9871 72.6131C24.9871 74.2211 27.0251 74.9191 27.0251 74.9191Z"></path><path stroke="#6e28d9" stroke-linecap="round" stroke-linejoin="round" d="M23.1251 71.9191V74.3191"></path><path stroke="#6e28d9" stroke-linecap="round" stroke-linejoin="round" d="M22.225 78.5191V76.1191L24.025 78.5191V76.1191"></path><path stroke="#6e28d9" stroke-linecap="round" stroke-linejoin="round" d="M26.1251 76.1191L27.0251 77.3191L27.9251 76.1191"></path><path stroke="#6e28d9" stroke-linecap="round" stroke-linejoin="round" d="M27.025 78.5191V77.3191"></path><path stroke="#6e28d9" stroke-linecap="round" stroke-linejoin="round" d="M22.525 71.919H23.725"></path><path stroke="#6e28d9" stroke-linecap="round" stroke-linejoin="round" d="M22.525 74.319H23.725"></path><path fill="rgba(110,40,217,0.12)" d="M62.941 84.861C75.2448 84.861 85.219 84.0856 85.219 83.129C85.219 82.1725 75.2448 81.397 62.941 81.397C50.6372 81.397 40.663 82.1725 40.663 83.129C40.663 84.0856 50.6372 84.861 62.941 84.861Z"></path><path fill="#ffffff" stroke="#6e28d9" stroke-linejoin="round" d="M57.425 78.461H54.283L60.994 57.655C61.0845 57.3717 61.2629 57.1246 61.5033 56.9495C61.7437 56.7743 62.0336 56.6803 62.331 56.681H64.451L57.425 78.461Z"></path><path fill="#ffffff" d="M84.825 78.461H57.425L64.451 56.681H89.921C90.1425 56.6811 90.3608 56.7335 90.5581 56.834C90.7554 56.9344 90.9263 57.08 91.0567 57.259C91.1871 57.4379 91.2734 57.6451 91.3086 57.8638C91.3437 58.0824 91.3268 58.3062 91.2591 58.517L84.825 78.461Z"></path><path fill="#ffffff" stroke="#6e28d9" stroke-linejoin="round" d="M84.825 78.461H56.02V81.974H82.015C82.7603 81.974 83.475 81.678 84.002 81.151C84.529 80.624 84.825 79.9093 84.825 79.164V78.461Z"></path><path fill="#ffffff" stroke="#6e28d9" stroke-linejoin="round" d="M56.02 78.461H43.305C43.2131 78.461 43.1221 78.4791 43.0372 78.5143C42.9522 78.5495 42.8751 78.6011 42.8101 78.6661C42.7451 78.7311 42.6935 78.8082 42.6583 78.8932C42.6231 78.9781 42.605 79.0691 42.605 79.161C42.6049 79.5301 42.6775 79.8955 42.8187 80.2365C42.9598 80.5775 43.1668 80.8873 43.4278 81.1483C43.6887 81.4093 43.9986 81.6162 44.3395 81.7574C44.6805 81.8986 45.046 81.9712 45.415 81.971H56.02V78.461Z"></path><path fill="rgba(110,40,217,0.34)" stroke="#6e28d9" stroke-linejoin="round" d="M76.875 66.8C76.8777 66.5357 76.9475 66.2763 77.0778 66.0463C77.2081 65.8163 77.3947 65.6232 77.62 65.485C77.4766 65.2813 77.2879 65.1136 77.0688 64.9951C76.8496 64.8766 76.606 64.8105 76.357 64.802C75.819 64.747 75.309 65.118 75.036 65.118C74.763 65.118 74.343 64.809 73.897 64.818C73.6043 64.8263 73.3187 64.9105 73.0682 65.0623C72.8177 65.2141 72.6109 65.4283 72.468 65.684C72.2379 66.2529 72.1573 66.8712 72.234 67.4801C72.3106 68.0889 72.542 68.668 72.906 69.162C73.196 69.581 73.541 70.052 73.996 70.035C74.433 70.017 74.596 69.752 75.126 69.752C75.656 69.752 75.803 70.035 76.265 70.026C76.727 70.017 77.034 69.599 77.322 69.179C77.5279 68.8763 77.6886 68.5451 77.799 68.196C77.5254 68.0792 77.2919 67.8847 77.1277 67.6366C76.9635 67.3884 76.8756 67.0976 76.875 66.8Z"></path><path stroke="#6e28d9" stroke-linecap="round" stroke-linejoin="round" d="M75.692 63.004L76.326 62.371"></path><path stroke="#6e28d9" stroke-linejoin="round" d="M84.825 78.461H57.425L64.451 56.681H89.921C90.1425 56.6811 90.3608 56.7335 90.5581 56.834C90.7554 56.9344 90.9263 57.08 91.0567 57.259C91.1871 57.4379 91.2734 57.6451 91.3086 57.8638C91.3437 58.0824 91.3268 58.3062 91.2591 58.517L84.825 78.461Z"></path></svg>