<svg viewBox="0 0 100 100" xmlns="http://www.w3.org/2000/svg"><path d="M10.000 50.000 A40.000 40.000 0 1 0 90.000 50.000 A40.000 40.000 0 1 0 10.000 50.000 Z" fill="rgba(110,40,217,0.34)"></path><path d="M50,10a39.822,39.822,0,0,0-19.5,5.067V84.933A40,40,0,1,0,50,10Z" fill="#ffffff"></path><path d="M30.5 15.067L30.5 84.933" fill="none" stroke="#6e28d9" stroke-linecap="round" stroke-linejoin="round"></path><path d="M43.544 30.000 L83.544 30.000 L83.544 49.000 L43.544 49.000 Z" fill="rgba(110,40,217,0.34)" stroke="#6e28d9" stroke-linecap="round" stroke-linejoin="round"></path><path d="M43.544 30.000 L83.544 30.000 L83.544 49.000 L43.544 49.000 Z" fill="none" stroke="#6e28d9" stroke-linecap="round" stroke-linejoin="round"></path><path d="M47.044 30L63.544 15 80.044 30" fill="none" stroke="#6e28d9" stroke-linecap="round" stroke-linejoin="round"></path><path d="M46.044 32.500 L81.044 32.500 L81.044 46.500 L46.044 46.500 Z" fill="none" stroke="#6e28d9" stroke-linecap="round" stroke-linejoin="round"></path><path d="M53.793,36.153a.653.653,0,1,1,1.3,0V38h2.73V36.153a.653.653,0,1,1,1.3,0v4.94a.653.653,0,1,1-1.3,0V39.2H55.1v1.9a.653.653,0,1,1-1.3,0Z" fill="#6e28d9"></path><path d="M64.187,39.414a2.25,2.25,0,1,1-4.489,0,2.251,2.251,0,1,1,4.489,0Zm-3.236,0c0,.6.313,1.261.991,1.261s.992-.661.992-1.261-.3-1.278-.992-1.278S60.951,38.814,60.951,39.414Z" fill="#6e28d9"></path><path d="M64.7,35.718a.63.63,0,1,1,1.253,0v5.357a.63.63,0,1,1-1.253,0Z" fill="#6e28d9"></path><path d="M70.926,40.953c0,.323,0,.818-.6.818-.365,0-.512-.2-.6-.531a1.5,1.5,0,0,1-1.192.583,2.191,2.191,0,0,1-2.07-2.409,2.245,2.245,0,0,1,2.07-2.426,1.431,1.431,0,0,1,1.192.574.6.6,0,0,1,.6-.523c.6,0,.6.5.6.819Zm-2.218-.278c.652,0,.966-.661.966-1.261s-.305-1.278-.966-1.278c-.687,0-.991.678-.991,1.278S68.029,40.675,68.708,40.675Z" fill="#6e28d9"></path><path d="M72.057,41.145a.678.678,0,1,1,.677.678A.678.678,0,0,1,72.057,41.145Zm.051-5.131a.58.58,0,0,1,.626-.592.59.59,0,0,1,.627.592v3.348a.589.589,0,0,1-.627.591.58.58,0,0,1-.626-.591Z" fill="#6e28d9"></path><path d="M61.044 15.000 A2.500 2.500 0 1 0 66.044 15.000 A2.500 2.500 0 1 0 61.044 15.000 Z" fill="rgba(110,40,217,0.34)" stroke="#6e28d9" stroke-linecap="round" stroke-linejoin="round"></path><path d="M43.376,67.056l-6-6.452a5.324,5.324,0,0,0-1.479-1.044l-7.2-3.42c-.85-.939-1.011.4-1.95,1.252s-3.629,4.544-2.779,5.483l7.541,8.105h0L31.477,73a2.292,2.292,0,0,0,4.583.114,2.293,2.293,0,0,0,3.364-2.44l-.276-1.43.827.889a2.294,2.294,0,1,0,3.4-3.078Z" fill="#ffffff" stroke="#6e28d9" stroke-linecap="round" stroke-linejoin="round"></path><path d="M34.367,68.677l.554,2.867a2.293,2.293,0,0,0,4.5-.869" fill="none" stroke="#6e28d9" stroke-linecap="round"></path><path d="M35.598 65.43L39.975 70.134" fill="none" stroke="#6e28d9" stroke-linecap="round"></path><path d="M25.16,87.412,13.432,84.22l.006-.022c.6-14.959,2.324-30.868,22.972-37.3l1.177-.371a2.294,2.294,0,0,1,1.376,4.376l-1.177.37c-5.2,1.638-9.005,3.905-10.94,8.982C23.852,67.9,28.692,65.9,30.258,63.3l3.566-5.428a2.293,2.293,0,0,1,3.864,2.471C32.865,71.532,33.247,73.921,29.7,77.309,27.054,79.838,26.614,82.069,25.16,87.412Z" fill="#ffffff"></path><path d="M13.432,84.22l.006-.022c.6-14.959,2.324-30.868,22.972-37.3l1.177-.371a2.294,2.294,0,0,1,1.376,4.376l-1.177.37c-5.2,1.638-9.005,3.905-10.94,8.982C23.852,67.9,28.692,65.9,30.258,63.3l3.566-5.428a2.293,2.293,0,0,1,3.864,2.471C32.865,71.532,33.247,73.921,29.7,77.309c-2.647,2.529-3.087,4.76-4.541,10.1" fill="none" stroke="#6e28d9" stroke-linecap="round" stroke-linejoin="round"></path><path d="M37.191,68.521a3.67,3.67,0,0,1-3.67-3.67v-15.9a3.669,3.669,0,0,1,3.67-3.67H72.667a3.67,3.67,0,0,1,3.67,3.67v15.9a3.67,3.67,0,0,1-3.67,3.67Z" fill="#ffffff"></path><path d="M39.646 45.277H70.031V68.52H39.646z" fill="#ffffff"></path><path d="M37.191,68.521a3.67,3.67,0,0,1-3.67-3.67v-15.9a3.669,3.669,0,0,1,3.67-3.67H72.667a3.67,3.67,0,0,1,3.67,3.67v15.9a3.67,3.67,0,0,1-3.67,3.67Z" fill="none" stroke="#6e28d9" stroke-linecap="round" stroke-linejoin="round"></path><path d="M39.646 45.277H70.031V68.52H39.646z" fill="none" stroke="#6e28d9" stroke-linecap="round" stroke-linejoin="round"></path><path d="M72.667 55.676L72.667 61.792" fill="none" stroke="#6e28d9" stroke-linecap="round" stroke-linejoin="round"></path><path d="M72.667,53.229a.612.612,0,1,1,.611-.612A.61.61,0,0,1,72.667,53.229Z" fill="#6e28d9"></path><path d="M26.331,65.4c.913.772,3-.56,3.927-2.1l3.566-5.428a2.293,2.293,0,0,1,3.864,2.471C32.865,71.532,33.247,73.921,29.7,77.309c-2.647,2.529-3.087,4.76-4.541,10.1" fill="#ffffff" stroke="#6e28d9" stroke-linecap="round" stroke-linejoin="round"></path><path d="M44.114,54.3a.758.758,0,1,1,1.514,0v2.14H48.8V54.3a.758.758,0,1,1,1.514,0V60.03a.758.758,0,1,1-1.514,0v-2.2h-3.17v2.2a.758.758,0,1,1-1.514,0Z" fill="#6e28d9"></path><path d="M52.347,58.556a1.258,1.258,0,0,0,1.374,1.05c.747,0,1.262-.586,1.645-.586a.646.646,0,0,1,.6.626c0,.626-1.292,1.232-2.373,1.232a2.648,2.648,0,0,1-2.725-2.8,2.614,2.614,0,1,1,5.219-.172c0,.434-.192.646-.636.646Zm2.282-.969a1.15,1.15,0,0,0-1.161-1.111,1.171,1.171,0,0,0-1.151,1.111Z" fill="#6e28d9"></path><path d="M56.574,53.791a.731.731,0,1,1,1.454,0V60.01a.731.731,0,1,1-1.454,0Z" fill="#6e28d9"></path><path d="M58.815,53.791a.731.731,0,1,1,1.453,0V60.01a.731.731,0,1,1-1.453,0Z" fill="#6e28d9"></path><path d="M66.071,58.082a2.611,2.611,0,1,1-5.209,0,2.613,2.613,0,1,1,5.209,0Zm-3.755,0c0,.7.363,1.463,1.15,1.463s1.151-.767,1.151-1.463S64.265,56.6,63.466,56.6,62.316,57.385,62.316,58.082Z" fill="#6e28d9"></path><path d="M63.725 47.57L67.738 47.57 67.738 51.01" fill="none" stroke="#6e28d9" stroke-linecap="round" stroke-linejoin="round"></path><path d="M45.952 47.57L41.939 47.57 41.939 51.01" fill="none" stroke="#6e28d9" stroke-linecap="round" stroke-linejoin="round"></path><path d="M63.725 65.916L67.738 65.916 67.738 62.476" fill="none" stroke="#6e28d9" stroke-linecap="round" stroke-linejoin="round"></path><path d="M45.952 65.916L41.939 65.916 41.939 62.476" fill="none" stroke="#6e28d9" stroke-linecap="round" stroke-linejoin="round"></path></svg>