<svg viewBox="0 0 100 100" xmlns="http://www.w3.org/2000/svg"><path d="M10.000 50.000 A40.000 40.000 0 1 0 90.000 50.000 A40.000 40.000 0 1 0 10.000 50.000 Z" fill="rgba(110,40,217,0.12)" transform="translate(-15.328 77.06) rotate(-67.5)"></path><path d="M75.293,56.223H45V73.207a2.315,2.315,0,0,1-2.32,2.319H75.293a2.315,2.315,0,0,0,2.32-2.319V58.542A2.315,2.315,0,0,0,75.293,56.223Z" fill="#ffffff"></path><path d="M75.293,56.223H45V73.207a2.315,2.315,0,0,1-2.32,2.319H75.293a2.315,2.315,0,0,0,2.32-2.319V58.542A2.315,2.315,0,0,0,75.293,56.223Z" fill="none" stroke="#6e28d9" stroke-linejoin="round"></path><path d="M60.972 60.217 L72.953 60.217 L72.953 71.533 L60.972 71.533 Z" fill="rgba(110,40,217,0.34)"></path><path d="M60.972 60.217 L72.953 60.217 L72.953 71.533 L60.972 71.533 Z" fill="none" stroke="#6e28d9" stroke-linejoin="round"></path><path d="M45,60.217V71.532h9.985A1.331,1.331,0,0,0,56.313,70.2V61.548a1.331,1.331,0,0,0-1.331-1.331Z" fill="rgba(110,40,217,0.34)"></path><path d="M45,60.217V71.532h9.985A1.331,1.331,0,0,0,56.313,70.2V61.548a1.331,1.331,0,0,0-1.331-1.331Z" fill="none" stroke="#6e28d9" stroke-linejoin="round"></path><path d="M75.021,54.6a2.319,2.319,0,0,0,.845-3.172L68.511,38.745a2.309,2.309,0,0,0-3.169-.845L45,49.689V72Z" fill="#ffffff"></path><path d="M75.021,54.6a2.319,2.319,0,0,0,.845-3.172L68.511,38.745a2.309,2.309,0,0,0-3.169-.845L45,49.689V72Z" fill="none" stroke="#6e28d9" stroke-linejoin="round"></path><path d="M56.983 44.768 L68.963 44.768 L68.963 56.086 L56.983 56.086 Z" fill="rgba(110,40,217,0.34)" transform="translate(-16.797 38.377) rotate(-30.097)"></path><path d="M56.983 44.768 L68.963 44.768 L68.963 56.086 L56.983 56.086 Z" fill="none" stroke="#6e28d9" stroke-linejoin="round" transform="translate(-16.797 38.377) rotate(-30.097)"></path><path d="M49.771,51.539,45,54.306V64.543l.565.975A1.331,1.331,0,0,0,47.381,66l8.064-4.673a1.333,1.333,0,0,0,.484-1.82L51.59,52.024A1.331,1.331,0,0,0,49.771,51.539Z" fill="rgba(110,40,217,0.34)"></path><path d="M49.771,51.539,45,54.306V64.543l.565.975A1.331,1.331,0,0,0,47.381,66l8.064-4.673a1.333,1.333,0,0,0,.484-1.82L51.59,52.024A1.331,1.331,0,0,0,49.771,51.539Z" fill="none" stroke="#6e28d9" stroke-linejoin="round"></path><path d="M63.953,36.146a2.316,2.316,0,0,0-.846-3.171L50.413,25.633a2.313,2.313,0,0,0-3.169.847L45,30.363V68.914Z" fill="#ffffff"></path><path d="M44.997 68.796L44.997 68.914 45.889 67.372 44.997 68.796z" fill="#ffffff"></path><path d="M63.953,36.146a2.316,2.316,0,0,0-.846-3.171L50.413,25.633a2.313,2.313,0,0,0-3.169.847L45,30.363V68.914Z" fill="none" stroke="#6e28d9" stroke-linejoin="round"></path><path d="M45,38.339v3.385l7.176,4.151a1.332,1.332,0,0,0,1.819-.486l4.666-8.066a1.332,1.332,0,0,0-.486-1.819l-7.491-4.333a1.331,1.331,0,0,0-1.818.486Z" fill="rgba(110,40,217,0.34)"></path><path d="M45,60.938l5.328-9.212a1.331,1.331,0,0,0-.486-1.819L45,47.107Z" fill="rgba(110,40,217,0.34)"></path><path d="M45,60.938l5.328-9.212a1.331,1.331,0,0,0-.486-1.819L45,47.107Z" fill="none" stroke="#6e28d9" stroke-linejoin="round"></path><path d="M45,38.339v3.385l7.176,4.151a1.332,1.332,0,0,0,1.819-.486l4.666-8.066a1.332,1.332,0,0,0-.486-1.819l-7.491-4.333a1.331,1.331,0,0,0-1.818.486Z" fill="none" stroke="#6e28d9" stroke-linejoin="round"></path><path d="M28.013,23.607H42.677A2.32,2.32,0,0,1,45,25.927V73.206a2.32,2.32,0,0,1-2.32,2.32H28.014a2.32,2.32,0,0,1-2.32-2.32V25.926A2.319,2.319,0,0,1,28.013,23.607Z" fill="#ffffff"></path><path d="M28.013,23.607H42.677A2.32,2.32,0,0,1,45,25.927V73.206a2.32,2.32,0,0,1-2.32,2.32H28.014a2.32,2.32,0,0,1-2.32-2.32V25.926A2.319,2.319,0,0,1,28.013,23.607Z" fill="none" stroke="#6e28d9" stroke-linejoin="round"></path><path d="M29.687 28.266 L41.003 28.266 L41.003 40.247 L29.687 40.247 Z" fill="rgba(110,40,217,0.34)"></path><path d="M29.687 28.266 L41.003 28.266 L41.003 40.247 L29.687 40.247 Z" fill="none" stroke="#6e28d9" stroke-linejoin="round"></path><path d="M29.687 44.907 L41.003 44.907 L41.003 56.888 L29.687 56.888 Z" fill="rgba(110,40,217,0.34)"></path><path d="M29.687 44.907 L41.003 44.907 L41.003 56.888 L29.687 56.888 Z" fill="none" stroke="#6e28d9" stroke-linejoin="round"></path><path d="M33.348 68.870 A1.997 1.997 0 1 0 37.342 68.870 A1.997 1.997 0 1 0 33.348 68.870 Z" fill="rgba(110,40,217,0.34)" stroke="#6e28d9" stroke-linejoin="round"></path></svg>